<svg xmlns="http://www.w3.org/2000/svg" version="1.1" xmlns:xlink="http://www.w3.org/1999/xlink" xmlns:svgjs="http://svgjs.dev/svgjs" width="100%" height="100%" viewBox="0 0 1000 600"><rect width="1000" height="600" x="0" y="0" fill="#3c0e0e"/><g><rect width="333.3333333333333" height="333.3333333333333" rx="13.333333333333334" ry="13.333333333333334" y="207.15534801081566" fill="#df9911" transform="matrix(0.6759200086514241,0,0,0.6759200086514241,0,47.32621485966041)" x="184.93312072753903"/><path d="M288.18777382955284 447.35890170745216L235.71996095273892 447.35890170745216Q231.09647270146363 447.35890170745216 228.66767824035065 444.9301072463392Q226.23888377923768 442.5013127852263 226.23888377923768 437.8778245339509L226.23888377923768 437.8778245339509L226.23888377923768 308.30310316276734Q226.23888377923768 303.6796149114921 228.66767824035065 301.25082045037914Q231.09647270146363 298.82202598926614 235.71996095273892 298.82202598926614L235.71996095273892 298.82202598926614L285.6711916168334 298.82202598926614Q301.03404814796966 298.82202598926614 311.68562867622416 303.35772648893493Q322.33720920447854 307.8934269886038 328.0141504750318 316.52588922990884Q333.691091745585 325.1583514712141 333.691091745585 337.5949496154672L333.691091745585 337.5949496154672Q333.691091745585 351.4946769531619 325.58535601391884 360.7709160395813Q317.47962028225265 370.04715512600075 303.57989294455797 372.97341351288384L303.57989294455797 372.97341351288384L303.57989294455797 370.04715512600075Q319.38168823372666 371.91996049360586 328.3360388975889 381.4010376671071Q337.2903895614512 390.8821148406084 337.2903895614512 406.47907204269524L337.2903895614512 406.47907204269524Q337.2903895614512 426.2898413218938 324.4441152430344 436.82437151467303Q311.5685783407488 447.35890170745216 288.18777382955284 447.35890170745216L288.18777382955284 447.35890170745216ZM243.0941320876843 379.08929354146954L243.0941320876843 433.4591743697575L286.51980654902945 433.4591743697575Q303.37505485747613 433.4591743697575 311.8026790116994 426.69951749605747Q320.2303031659228 419.96912320622636 320.2303031659228 406.2742339556135L320.2303031659228 406.2742339556135Q320.2303031659228 392.3745066179187 311.8026790116994 385.73190007969407Q303.37505485747613 379.08929354146954 286.51980654902945 379.08929354146954L286.51980654902945 379.08929354146954L243.0941320876843 379.08929354146954ZM243.0941320876843 312.7217533269608L243.0941320876843 365.18956620377475L283.1253468202451 365.18956620377475Q299.5709189545281 365.18956620377475 308.11559344422676 358.45917191394363Q316.6310053500565 351.69951504024374 316.6310053500565 339.05807880890876L316.6310053500565 339.05807880890876Q316.6310053500565 326.0069664034101 308.11559344422676 319.36435986518546Q299.5709189545281 312.7217533269608 283.1253468202451 312.7217533269608L283.1253468202451 312.7217533269608L243.0941320876843 312.7217533269608ZM377.321604294012 448.8220309008937L377.321604294012 448.8220309008937Q373.1077922169003 448.8220309008937 370.8838358428692 446.42249902364955Q368.68914205270687 443.9937045625366 368.68914205270687 439.7798924854249L368.68914205270687 439.7798924854249L368.68914205270687 307.65932631765304Q368.68914205270687 303.2406761534596 371.00088617834444 301.0459823632973Q373.31263030398213 298.82202598926614 377.52644238109383 298.82202598926614L377.52644238109383 298.82202598926614L427.44841046131944 298.82202598926614Q451.26815373054774 298.82202598926614 464.11442804896467 310.52705953679856Q476.9607023673814 322.2028305004621 476.9607023673814 343.4767289731022L476.9607023673814 343.4767289731022Q476.9607023673814 364.54578935866044 464.11442804896467 376.3678732416682Q451.26815373054774 388.1606945408071 427.44841046131944 388.1606945408071L427.44841046131944 388.1606945408071L385.9540665353171 388.1606945408071L385.9540665353171 439.7798924854249Q385.9540665353171 443.9937045625366 383.84716049676126 446.42249902364955Q381.7402544582054 448.8220309008937 377.321604294012 448.8220309008937ZM385.9540665353171 313.1606920849933L385.9540665353171 373.61719035799814L425.3415044227636 373.61719035799814Q442.4308534021609 373.61719035799814 451.1511033950725 365.9211308004955Q459.900615971853 358.225071242993 459.900615971853 343.4767289731022L459.900615971853 343.4767289731022Q459.900615971853 328.52354861612963 451.1511033950725 320.827489058627Q442.4308534021609 313.1606920849933 425.3415044227636 313.1606920849933L425.3415044227636 313.1606920849933L385.9540665353171 313.1606920849933Z " fill="#3c0e0e" transform="matrix(0.6759200086514241,0,0,0.6759200086514241,0,47.32621485966041)"/><path d="M608.0974035229652 418.50756092450985L608.0974035229652 418.50756092450985Q604.9295290745587 418.50756092450985 603.2646607513085 416.77332308779097Q601.5997924280583 415.0159620799157 601.5997924280583 411.68622543341536L601.5997924280583 411.68622543341536L601.5997924280583 305.8052247089345Q601.5997924280583 302.4754880624341 603.2646607513085 300.64875754109016Q604.9295290745587 298.8220270197462 607.611816928684 298.8220270197462L607.611816928684 298.8220270197462Q610.270981611653 298.8220270197462 611.5196328540907 299.72383069484005Q612.7682840965283 300.64875754109016 614.4331524197786 302.98419782787164L614.4331524197786 302.98419782787164L687.0167866792556 399.70842277447645L683.0164780692238 399.70842277447645L683.0164780692238 305.4815003127469Q683.0164780692238 302.31362586434034 684.681346392474 300.55626485646513Q686.3462147157242 298.8220270197462 689.5140891641308 298.8220270197462L689.5140891641308 298.8220270197462Q692.5201014144437 298.8220270197462 694.0924770530688 300.55626485646513Q695.664852691694 302.31362586434034 695.664852691694 305.4815003127469L695.664852691694 305.4815003127469L695.664852691694 411.84808763150915Q695.664852691694 415.0159620799157 694.2543392511626 416.77332308779097Q692.8438258106313 418.50756092450985 690.1846611276621 418.50756092450985L690.1846611276621 418.50756092450985Q687.6873586427869 418.50756092450985 686.1843525176305 417.513264564791Q684.681346392474 416.5189682050721 683.0164780692238 414.3453901163844L683.0164780692238 414.3453901163844L610.5947060078405 317.62116516977954L614.4331524197786 317.62116516977954L614.4331524197786 411.68622543341536Q614.4331524197786 415.0159620799157 612.7682840965283 416.77332308779097Q611.1034157732781 418.50756092450985 608.0974035229652 418.50756092450985ZM756.617531859576 418.8544084918537L756.617531859576 418.8544084918537Q744.7784682275746 418.8544084918537 736.1304022151362 413.6979413240094Q727.4823362026976 408.5183509850088 722.7189629445096 399.1303434955701Q717.9787128574778 389.7192128349753 717.9787128574778 376.8858528432551L717.9787128574778 376.8858528432551Q717.9787128574778 367.2434904710978 720.6378775404469 359.49722813375314Q723.3201653945722 351.7509657964085 728.4766325624165 346.2707742323766Q733.6330997302609 340.76745949718844 740.7087901040742 337.85393993150063Q747.7844804778875 334.9404203658128 756.617531859576 334.9404203658128L756.617531859576 334.9404203658128Q768.4334723204212 334.9404203658128 777.0815383328596 340.09688753365714Q785.7527275164543 345.25335470150145 790.4929776034861 354.6644853620963Q795.233227690518 364.0756160226911 795.233227690518 376.8858528432551L795.233227690518 376.8858528432551Q795.233227690518 386.5513383865687 792.5740630075488 394.2051080392884Q789.9148983245799 401.858877692008 784.7353079855792 407.4546851118211Q779.5788408177349 413.02736936047796 772.5031504439215 415.9408889261659Q765.4274600701083 418.8544084918537 756.617531859576 418.8544084918537ZM756.617531859576 408.03276439072744L756.617531859576 408.03276439072744Q764.109439314202 408.03276439072744 769.7514930763275 404.35618017688324Q775.4166700096094 400.7027191341953 778.492051773391 393.71952144500705Q781.5905567083289 386.7132005846625 781.5905567083289 376.8858528432551L781.5905567083289 376.8858528432551Q781.5905567083289 361.74017573590965 774.8385907307031 353.7626816870025Q768.0866247530773 345.7620644669391 756.617531859576 345.7620644669391L756.617531859576 345.7620644669391Q748.9406390357002 345.7620644669391 743.3679547870432 349.3461559961582Q737.7952705383864 352.9302475253774 734.7198887746048 359.8209525299407Q731.6445070108232 366.73478070566017 731.6445070108232 376.8858528432551L731.6445070108232 376.8858528432551Q731.6445070108232 391.8696677525068 738.4658425019177 399.9627776571953Q745.2871779930123 408.03276439072744 756.617531859576 408.03276439072744ZM865.1576972670259 418.1838365283224L865.1576972670259 418.1838365283224Q861.8279606205255 418.1838365283224 860.1630922972753 416.26461332235334Q858.4982239740251 414.3453901163844 858.4982239740251 410.85379127179027L858.4982239740251 410.85379127179027L858.4982239740251 342.7560522166262Q858.4982239740251 339.26445337203205 860.1630922972753 337.4377228506881Q861.8279606205255 335.6109923293441 865.1576972670259 335.6109923293441L865.1576972670259 335.6109923293441Q868.3255717154326 335.6109923293441 870.1523022367766 337.4377228506881Q871.9790327581205 339.26445337203205 871.9790327581205 342.7560522166262L871.9790327581205 342.7560522166262L871.9790327581205 410.85379127179027Q871.9790327581205 414.3453901163844 870.2447949214015 416.26461332235334Q868.4874339135264 418.1838365283224 865.1576972670259 418.1838365283224ZM865.1576972670259 316.95059320624824L865.1576972670259 316.95059320624824Q860.9955264589004 316.95059320624824 858.6600861721189 314.70764560409174Q856.3246458853374 312.46469800193523 856.3246458853374 308.6262515899973L856.3246458853374 308.6262515899973Q856.3246458853374 304.6490661511218 858.6600861721189 302.5679807470591Q860.9955264589004 300.4868953429964 865.1576972670259 300.4868953429964L865.1576972670259 300.4868953429964Q869.4817302732451 300.4868953429964 871.7246778754017 302.5679807470591Q873.9907486487144 304.6490661511218 873.9907486487144 308.6262515899973L873.9907486487144 308.6262515899973Q873.9907486487144 312.46469800193523 871.7246778754017 314.70764560409174Q869.4817302732451 316.95059320624824 865.1576972670259 316.95059320624824ZM904.1202406653116 418.50756092450985L904.1202406653116 418.50756092450985Q900.7905040188112 418.50756092450985 899.1256356955611 416.6808304031659Q897.4607673723109 414.8540998818219 897.4607673723109 411.5243632353216L897.4607673723109 411.5243632353216L897.4607673723109 342.10860342425116Q897.4607673723109 338.7788667777508 899.1256356955611 337.02150576987555Q900.7905040188112 335.2641447620004 903.9583784672178 335.2641447620004L903.9583784672178 335.2641447620004Q907.1031297444682 335.2641447620004 908.8604907523434 337.02150576987555Q910.6178517602186 338.7788667777508 910.6178517602186 342.10860342425116L910.6178517602186 342.10860342425116L910.6178517602186 356.745570766159L908.7679980677184 354.41013047937753Q911.935872516125 345.0914925034078 919.0115628899383 340.02751802018844Q926.0872532637517 334.9404203658128 935.9146010051589 334.9404203658128L935.9146010051589 334.9404203658128Q946.2275353408478 334.9404203658128 952.655776922286 339.8425326509384Q959.0608953325678 344.7677681072202 961.2113502500994 355.08070244290883L961.2113502500994 355.08070244290883L958.7140477652241 355.08070244290883Q961.7200600155369 345.7620644669391 969.4663223528815 340.3512424163759Q977.2125846902262 334.9404203658128 987.5255190259148 334.9404203658128L987.5255190259148 334.9404203658128Q996.682294803791 334.9404203658128 1002.6018266197917 338.43201921040696Q1008.498235264636 341.9236180550011 1011.5042475149489 348.99930842881446Q1014.4871365941054 356.0749988026277 1014.4871365941054 366.89664290375396L1014.4871365941054 366.89664290375396L1014.4871365941054 411.5243632353216Q1014.4871365941054 414.8540998818219 1012.7528987573866 416.6808304031659Q1010.9955377495113 418.50756092450985 1007.665801103011 418.50756092450985L1007.665801103011 418.50756092450985Q1004.4979266546044 418.50756092450985 1002.7636888178855 416.6808304031659Q1001.0063278100102 414.8540998818219 1001.0063278100102 411.5243632353216L1001.0063278100102 411.5243632353216L1001.0063278100102 367.56721486728526Q1001.0063278100102 356.42184636997155 997.1910045692285 351.17288651750215Q993.3525581572907 345.92392666503287 984.1957823794145 345.92392666503287L984.1957823794145 345.92392666503287Q974.2065724399134 345.92392666503287 968.4720259931627 352.8377548407523Q962.7143563752559 359.7515830164719 962.7143563752559 371.567523477317L962.7143563752559 371.567523477317L962.7143563752559 411.5243632353216Q962.7143563752559 414.8540998818219 960.9801185385369 416.6808304031659Q959.2227575306616 418.50756092450985 955.8930208841613 418.50756092450985L955.8930208841613 418.50756092450985Q952.7251464357547 418.50756092450985 950.9909085990358 416.6808304031659Q949.2335475911606 414.8540998818219 949.2335475911606 411.5243632353216L949.2335475911606 411.5243632353216L949.2335475911606 367.56721486728526Q949.2335475911606 356.42184636997155 945.3257316657538 351.17288651750215Q941.4179157403472 345.92392666503287 932.4230021605648 345.92392666503287L932.4230021605648 345.92392666503287Q922.4337922210638 345.92392666503287 916.6761226031568 352.8377548407523Q910.9415761564061 359.7515830164719 910.9415761564061 371.567523477317L910.9415761564061 371.567523477317L910.9415761564061 411.5243632353216Q910.9415761564061 418.50756092450985 904.1202406653116 418.50756092450985ZM1065.1037582551426 418.8544084918537L1065.1037582551426 418.8544084918537Q1056.7794166388917 418.8544084918537 1050.212436030516 415.59404135882204Q1043.622332250984 412.35679739694666 1039.8070090102024 406.69162046366483Q1035.9685625982643 401.0264435303829 1035.9685625982643 394.0432458411946L1035.9685625982643 394.0432458411946Q1035.9685625982643 385.0483322614123 1040.5469504872021 379.891865093568Q1045.1253383761405 374.7353979257236 1055.692627594548 372.5618198370359Q1066.2830399841114 370.41136491950436 1084.5965915398633 370.41136491950436L1084.5965915398633 370.41136491950436L1092.0884989944893 370.41136491950436L1092.0884989944893 379.2212931300366L1084.7584537379576 379.2212931300366Q1071.277644953862 379.2212931300366 1063.5313826165175 380.46994437247423Q1055.7851202791726 381.718595614912 1052.709738515391 384.72460786522475Q1049.6343567516096 387.7074969443814 1049.6343567516096 393.21081167956953L1049.6343567516096 393.21081167956953Q1049.6343567516096 400.032147170664 1054.3746068386413 404.35618017688324Q1059.114856925673 408.70333635425874 1067.2773363438305 408.70333635425874L1067.2773363438305 408.70333635425874Q1073.9368096368312 408.70333635425874 1079.0007841200504 405.5354619058522Q1084.087881774426 402.3675874574455 1087.0014013401137 396.86427272225745Q1089.9149209058019 391.38408115822557 1089.9149209058019 384.21589809978724L1089.9149209058019 384.21589809978724L1089.9149209058019 365.2317745805038Q1089.9149209058019 354.91884024481504 1085.7527500976762 350.34045235587706Q1081.5905792895505 345.7620644669391 1072.1100791154872 345.7620644669391L1072.1100791154872 345.7620644669391Q1066.2830399841114 345.7620644669391 1060.4560008527355 347.26507059209547Q1054.6289617213602 348.76807671725186 1048.1313506264532 352.0978133637523L1048.1313506264532 352.0978133637523Q1045.7959103396715 353.25397192156487 1044.1310420164214 352.8377548407523Q1042.4661736931712 352.4215377599398 1041.4718773334525 351.0803938328772Q1040.4775809737334 349.76237307697073 1040.2925956044833 348.0050120690956Q1040.1307334063895 346.2707742323766 1041.0556602526399 344.6059059091264Q1041.9574639277334 342.94103758587624 1043.9691798183276 341.9236180550011L1043.9691798183276 341.9236180550011Q1051.2992250748598 338.2701570123132 1058.4442849621419 336.605288689063Q1065.6124680205803 334.9404203658128 1072.1100791154872 334.9404203658128L1072.1100791154872 334.9404203658128Q1082.5848756492696 334.9404203658128 1089.4062111403641 338.36264969693826Q1096.250669802615 341.7617558569073 1099.5804064491153 348.6755840326269Q1102.9101430956157 355.58941220834646 1102.9101430956157 366.4110563094727L1102.9101430956157 366.4110563094727L1102.9101430956157 411.5243632353216Q1102.9101430956157 414.8540998818219 1101.3146442858342 416.6808304031659Q1099.7422686472091 418.50756092450985 1096.7362563968964 418.50756092450985L1096.7362563968964 418.50756092450985Q1093.5683819484893 418.50756092450985 1091.9035136252396 416.6808304031659Q1090.2386453019894 414.8540998818219 1090.2386453019894 411.5243632353216L1090.2386453019894 411.5243632353216L1090.2386453019894 398.52914104550763L1091.7416514271454 398.52914104550763Q1090.4236306712392 404.8648899423209 1086.6776769439261 409.3507851466339Q1082.9317232166136 413.85980352210305 1077.4284084814253 416.3571060069784Q1071.925093746237 418.8544084918537 1065.1037582551426 418.8544084918537ZM1163.6778368942478 448.8220383103571L1163.6778368942478 448.8220383103571Q1154.8447855125592 448.8220383103571 1146.4279512116832 446.74095290629435Q1138.0342400819636 444.65986750223163 1131.2129045908687 440.15084912676235L1131.2129045908687 440.15084912676235Q1129.201188700275 438.9946905689497 1128.6231094213686 437.3298222456995Q1128.045030142462 435.66495392244934 1128.3687545386497 434.09257828382414Q1128.7156021059936 432.4970794740428 1129.8717606638065 431.24842823160515Q1131.027919221619 429.9997769891674 1132.6234180314004 429.67605259297994Q1134.1957936700255 429.3292050256361 1135.8606619932757 430.1616391872612L1135.8606619932757 430.1616391872612Q1143.190707249808 434.67065756273047 1149.8501805428086 436.33552588598064Q1156.5096538358093 438.0003942092308 1163.0072649307162 438.0003942092308L1163.0072649307162 438.0003942092308Q1174.8232053915613 438.0003942092308 1180.904599405656 431.6646453124177Q1186.9859934197502 425.3520195867607 1186.9859934197502 413.35109375666553L1186.9859934197502 413.35109375666553L1186.9859934197502 394.55195560663213L1188.6508617430004 394.55195560663213Q1186.1535592581254 404.19431797878946 1178.060449353437 409.8594949120714Q1169.9904626199045 415.52467184535334 1159.1688185187782 415.52467184535334L1159.1688185187782 415.52467184535334Q1148.0234500214647 415.52467184535334 1139.8609706033076 410.4375741909777Q1131.69849118515 405.3735997077584 1127.281965494306 396.2168239298823Q1122.8885629746178 387.06004815200623 1122.8885629746178 375.05912232191116L1122.8885629746178 375.05912232191116Q1122.8885629746178 366.06420874212887 1125.3858654594933 358.66479397212805Q1127.8831679443688 351.26537920212724 1132.6234180314004 346.01641934965784Q1137.363668118432 340.76745949718844 1144.1156340960579 337.85393993150063Q1150.8444769025273 334.9404203658128 1159.1688185187782 334.9404203658128L1159.1688185187782 334.9404203658128Q1170.1523248179983 334.9404203658128 1178.1529420380616 340.5131046144697Q1186.1535592581254 346.08578886312654 1188.4658763737507 355.58941220834646L1188.4658763737507 355.58941220834646L1186.8010080505 357.5780049277842L1186.8010080505 342.10860342425116Q1186.8010080505 338.7788667777508 1188.5583690583753 337.02150576987555Q1190.3157300662506 335.2641447620004 1193.4604813435012 335.2641447620004L1193.4604813435012 335.2641447620004Q1196.7902179900016 335.2641447620004 1198.4550863132517 337.02150576987555Q1200.119954636502 338.7788667777508 1200.119954636502 342.10860342425116L1200.119954636502 342.10860342425116L1200.119954636502 411.5243632353216Q1200.119954636502 429.9997769891674 1190.893809345157 439.41090764976224Q1181.6445408826562 448.8220383103571 1163.6778368942478 448.8220383103571ZM1161.6661210036536 404.5411655461333L1161.6661210036536 404.5411655461333Q1169.5048760256232 404.5411655461333 1175.1469297877488 400.9570740169141Q1180.812106721031 397.37298248769497 1183.8874884848124 390.71350919469427Q1186.9859934197502 384.05403590169345 1186.9859934197502 375.05912232191116L1186.9859934197502 375.05912232191116Q1186.9859934197502 361.57831353781586 1180.1415347574994 353.6701890023774Q1173.3201992664049 345.7620644669391 1161.6661210036536 345.7620644669391L1161.6661210036536 345.7620644669391Q1154.0123513509338 345.7620644669391 1148.3471744176522 349.3461559961582Q1142.6819974843702 352.9302475253774 1139.6066157205887 359.49722813375314Q1136.5312339568068 366.06420874212887 1136.5312339568068 375.05912232191116L1136.5312339568068 375.05912232191116Q1136.5312339568068 388.53993110600646 1143.3525694479017 396.5405483260699Q1150.1739049389962 404.5411655461333 1161.6661210036536 404.5411655461333ZM1261.9050679660086 418.8544084918537L1261.9050679660086 418.8544084918537Q1249.0717079742885 418.8544084918537 1239.8455626829436 413.7673108374781Q1230.5962942204424 408.70333635425874 1225.5091965660672 399.3615752071327Q1220.4452220828475 390.04293723116285 1220.4452220828475 377.0708382125052L1220.4452220828475 377.0708382125052Q1220.4452220828475 364.3993404188787 1225.4398270525985 355.01133292944013Q1230.434432022349 345.6002022688453 1239.1749907194126 340.2587497317509Q1247.9155494164756 334.9404203658128 1259.4077654811335 334.9404203658128L1259.4077654811335 334.9404203658128Q1267.5471217281342 334.9404203658128 1274.0447328230412 337.69207773340685Q1280.5423439179485 340.443735101001 1285.1207318068864 345.6002022688453Q1289.6991196958243 350.7566694366896 1292.1039294960747 358.0867146932217Q1294.531862467481 365.41675994975384 1294.531862467481 374.5735357276298L1294.531862467481 374.5735357276298Q1294.531862467481 377.23270041059885 1293.0288563423246 378.4813516530366Q1291.5258502171682 379.73000289547423 1288.7048233361056 379.73000289547423L1288.7048233361056 379.73000289547423L1230.7581564185366 379.73000289547423L1230.7581564185366 370.8969515137857L1285.536948887699 370.8969515137857L1282.8777842047298 373.0705296024734Q1282.8777842047298 364.0756160226911 1280.218619521761 357.83235981050296Q1277.5363316676353 351.5891035983147 1272.472357184416 348.25936695181434Q1267.3852595300405 344.929630305314 1259.731489877321 344.929630305314L1259.731489877321 344.929630305314Q1251.2452860629764 344.929630305314 1245.3257542469755 348.8374462307207Q1239.4293456021314 352.74526215612735 1236.4233333518182 359.6590903318469Q1233.4173211015054 366.5729185075664 1233.4173211015054 375.72969428544246L1233.4173211015054 375.72969428544246L1233.4173211015054 376.72399064516134Q1233.4173211015054 392.05465312175687 1240.8398590426627 400.032147170664Q1248.2392738126637 408.03276439072744 1261.9050679660086 408.03276439072744L1261.9050679660086 408.03276439072744Q1267.5471217281342 408.03276439072744 1273.1429291479476 406.52975826557105Q1278.7156133966046 405.02675214041454 1284.0339427625427 401.5351532958204L1284.0339427625427 401.5351532958204Q1286.369383049324 400.032147170664 1288.288606255293 400.124639855289Q1290.207829461262 400.1940093687578 1291.3639880190744 401.28079841310165Q1292.5201465768873 402.3675874574455 1292.9363636577 403.9399630960707Q1293.3525807385122 405.5354619058522 1292.6126392615124 407.36219242719613Q1291.8726977845122 409.1889229485401 1289.6991196958243 410.5300668756027L1289.6991196958243 410.5300668756027Q1284.1958049606365 414.53037548563447 1276.7038975060104 416.6808304031659Q1269.2119900513844 418.8544084918537 1261.9050679660086 418.8544084918537Z " fill="#df9911" transform="matrix(0.6759200086514241,0,0,0.6759200086514241,0,47.32621485966041)"/></g></svg>